HIERARCHY
ROOT Hips
{
	OFFSET 0.00000 0.00000 0.00000
	CHANNELS 6 Xposition Yposition Zposition Zrotation Yrotation Xrotation 
	JOINT LHipJoint
	{
		OFFSET 0 0 0
		CHANNELS 3 Zrotation Yrotation Xrotation
		JOINT LeftUpLeg
		{
			OFFSET 1.58161 -1.81893 0.78828
			CHANNELS 3 Zrotation Yrotation Xrotation
			JOINT LeftLeg
			{
				OFFSET 2.53374 -6.96141 0.00000
				CHANNELS 3 Zrotation Yrotation Xrotation
				JOINT LeftFoot
				{
					OFFSET 2.63509 -7.23986 0.00000
					CHANNELS 3 Zrotation Yrotation Xrotation
					JOINT LeftToeBase
					{
						OFFSET 0.14115 -0.38781 2.05350
						CHANNELS 3 Zrotation Yrotation Xrotation
						End Site
						{
							OFFSET 0.00000 -0.00000 1.05543
						}
					}
				}
			}
		}
	}
	JOINT RHipJoint
	{
		OFFSET 0 0 0
		CHANNELS 3 Zrotation Yrotation Xrotation
		JOINT RightUpLeg
		{
			OFFSET -1.11138 -1.81893 0.78828
			CHANNELS 3 Zrotation Yrotation Xrotation
			JOINT RightLeg
			{
				OFFSET -2.58392 -7.09926 0.00000
				CHANNELS 3 Zrotation Yrotation Xrotation
				JOINT RightFoot
				{
					OFFSET -2.66423 -7.31992 0.00000
					CHANNELS 3 Zrotation Yrotation Xrotation
					JOINT RightToeBase
					{
						OFFSET -0.18831 -0.51739 2.12114
						CHANNELS 3 Zrotation Yrotation Xrotation
						End Site
						{
							OFFSET -0.00000 -0.00000 1.09845
						}
					}
				}
			}
		}
	}
	JOINT LowerBack
	{
		OFFSET 0 0 0
		CHANNELS 3 Zrotation Yrotation Xrotation
		JOINT Spine
		{
			OFFSET -0.01511 1.97958 -0.08829
			CHANNELS 3 Zrotation Yrotation Xrotation
			JOINT Spine1
			{
				OFFSET 0.08344 1.97334 -0.04330
				CHANNELS 3 Zrotation Yrotation Xrotation
				JOINT Neck
				{
					OFFSET 0 0 0
					CHANNELS 3 Zrotation Yrotation Xrotation
					JOINT Neck1
					{
						OFFSET 0.00559 1.76246 0.31246
						CHANNELS 3 Zrotation Yrotation Xrotation
						JOINT Head
						{
							OFFSET -0.07011 1.80354 -0.30524
							CHANNELS 3 Zrotation Yrotation Xrotation
							End Site
							{
								OFFSET -0.02385 1.83547 -0.13906
							}
						}
					}
				}
				JOINT LeftShoulder
				{
					OFFSET 0 0 0
					CHANNELS 3 Zrotation Yrotation Xrotation
					JOINT LeftArm
					{
						OFFSET 3.20667 1.30156 -0.60240
						CHANNELS 3 Zrotation Yrotation Xrotation
						JOINT LeftForeArm
						{
							OFFSET 4.95663 -0.00000 0.00000
							CHANNELS 3 Zrotation Yrotation Xrotation
							JOINT LeftHand
							{
								OFFSET 3.38177 -0.00000 0.00000
								CHANNELS 3 Zrotation Yrotation Xrotation
								JOINT LeftFingerBase
								{
									OFFSET 0 0 0
									CHANNELS 3 Zrotation Yrotation Xrotation
									JOINT LeftHandIndex1
									{
										OFFSET 0.66291 -0.00000 0.00000
										CHANNELS 3 Zrotation Yrotation Xrotation
										End Site
										{
											OFFSET 0.53445 -0.00000 0.00000
										}
									}
								}
								JOINT LThumb
								{
									OFFSET 0 0 0
									CHANNELS 3 Zrotation Yrotation Xrotation
									End Site
									{
										OFFSET 0.54261 -0.00000 0.54261
									}
								}
							}
						}
					}
				}
				JOINT RightShoulder
				{
					OFFSET 0 0 0
					CHANNELS 3 Zrotation Yrotation Xrotation
					JOINT RightArm
					{
						OFFSET -3.06877 1.34672 -0.60964
						CHANNELS 3 Zrotation Yrotation Xrotation
						JOINT RightForeArm
						{
							OFFSET -5.08365 -0.00000 0.00000
							CHANNELS 3 Zrotation Yrotation Xrotation
							JOINT RightHand
							{
								OFFSET -3.35984 -0.00000 0.00000
								CHANNELS 3 Zrotation Yrotation Xrotation
								JOINT RightFingerBase
								{
									OFFSET 0 0 0
									CHANNELS 3 Zrotation Yrotation Xrotation
									JOINT RightHandIndex1
									{
										OFFSET -0.82076 -0.00000 0.00000
										CHANNELS 3 Zrotation Yrotation Xrotation
										End Site
										{
											OFFSET -0.66172 -0.00000 0.00000
										}
									}
								}
								JOINT RThumb
								{
									OFFSET 0 0 0
									CHANNELS 3 Zrotation Yrotation Xrotation
									End Site
									{
										OFFSET -0.67182 -0.00000 0.67182
									}
								}
							}
						}
					}
				}
			}
		}
	}
}
MOTION
Frames: 7
Frame Time: .0083333
-8.1399 17.6004 -0.1931 0 0 0 0 0 0 -21 0 0 0 0 0 0 0 0 0 0 0 0 0 0 21 0 0 0 0 0 0 0 0 0 0 0 0 0 0 0 0 0 0 0 0 0 0 -16 0 0 21 0 0 11 0 0 0 -8 0 0 0 0 0 0 0 0 0 0 0 0 0 0 0 0 0 0 0 0 8 0 0 0 0 0 0 0 0 0 0 0 0 0 0 0 0 0
-8.1399 17.6004 -0.1931 -129.6260 86.7301 -113.6060 0.0000 0.0000 0.0000 -5.0752 -6.2553 -33.2157 3.1127 10.8752 31.8603 0.4765 -8.7354 -12.8667 2.7997 -10.3636 -30.1622 0.0000 0.0000 0.0000 7.4333 8.5067 -31.1059 -3.0210 -10.7289 31.3711 -0.2239 -5.5881 -12.7206 -0.4261 4.1891 -11.6094 -1.4816 1.9311 5.2396 4.7682 2.6650 3.5853 5.6423 1.3314 0.4697 1.3308 -2.1364 -14.9352 -4.9083 -0.1990 36.5262 -2.2125 -0.0906 15.2619 -0.0000 -0.0000 0.0000 -105.5055 -22.9537 77.8720 13.8626 -22.5379 -2.7752 -0.0000 0.0000 -43.2813 39.7555 66.5029 37.3391 -7.1250 0.0000 -0.0000 171.8066 11.6424 6.4392 -0.0000 -0.0000 0.0000 102.0273 25.5136 33.9447 -10.5710 17.6277 -1.6436 0.0000 -0.0000 -37.1906 -11.5442 -7.4126 1.5095 7.1250 -0.0000 -0.0000 12.9322 -37.2579 2.5150
-8.1386 17.6006 -0.1922 -130.0210 86.7129 -113.9900 0.0000 0.0000 0.0000 -5.0891 -6.2496 -33.2714 3.1228 10.8912 31.9139 0.4843 -8.7093 -12.9478 2.8790 -10.4965 -30.6001 0.0000 0.0000 0.0000 7.4515 8.4716 -31.1145 -3.0162 -10.7213 31.3456 -0.2350 -5.6299 -12.9406 -0.7069 5.3736 -14.9772 -1.4811 1.9340 5.1607 4.7857 2.6684 3.6160 5.6640 1.3315 0.5443 1.2944 -2.1413 -14.9878 -4.8820 -0.2002 36.5696 -2.1971 -0.0920 15.2959 0.0000 0.0000 0.0000 -105.4189 -23.0396 77.8850 13.9127 -22.6097 -2.7944 -0.0000 0.0000 -43.4175 39.5778 66.8177 37.2303 -7.1250 0.0000 -0.0000 171.6305 11.8608 6.5425 0.0000 0.0000 0.0000 101.9766 25.5016 34.1803 -10.6213 17.7054 -1.6589 0.0000 -0.0000 -37.8882 -11.3645 -7.3417 1.4713 7.1250 -0.0000 -0.0000 13.0677 -37.1762 2.5692
-8.1384 17.6052 -0.1915 -130.4980 86.7023 -114.4580 0.0000 0.0000 0.0000 -5.0065 -6.3561 -33.2413 3.1438 10.9243 32.0249 0.4628 -9.0034 -12.7826 2.5819 -9.9854 -28.9293 0.0000 0.0000 0.0000 7.4541 8.4553 -31.0821 -3.0035 -10.7007 31.2768 -0.2271 -5.7009 -12.8790 -0.6961 5.3335 -14.8622 -1.4836 1.9381 5.0881 4.7964 2.6732 3.6439 5.6799 1.3324 0.6126 1.2619 -2.1580 -15.0433 -4.8584 -0.2164 36.6326 -2.1867 -0.0990 15.3396 0.0000 -0.0000 0.0000 -105.3271 -23.1303 77.9232 13.9620 -22.6804 -2.8135 -0.0000 0.0000 -43.6157 37.6465 66.7504 35.3273 -7.1250 0.0000 -0.0000 171.2502 11.3602 6.9383 0.0000 -0.0000 0.0000 101.9712 25.5167 34.2508 -10.6516 17.7523 -1.6681 0.0000 -0.0000 -38.2920 -11.1927 -7.1187 1.4047 7.1250 -0.0000 -0.0000 13.1665 -36.9443 2.6660
-8.1387 17.6098 -0.1902 -130.4550 86.7077 -114.4480 0.0000 0.0000 0.0000 -4.9248 -6.4334 -33.1121 3.1566 10.9444 32.0926 0.4432 -9.2892 -12.6438 2.2895 -9.4448 -27.1969 0.0000 0.0000 0.0000 7.4602 8.4692 -31.0273 -3.0011 -10.6969 31.2642 -0.2219 -5.7449 -12.8364 -0.6681 5.2270 -14.5572 -1.4878 1.9413 5.1010 4.8004 2.6776 3.6507 5.6859 1.3346 0.6116 1.2099 -2.1575 -15.0025 -4.8183 -0.2088 36.6485 -2.1587 -0.0958 15.3388 -0.0000 -0.0000 0.0000 -105.2918 -23.1939 77.9454 13.9741 -22.6976 -2.8181 -0.0000 0.0000 -43.7951 34.6339 66.2045 32.2933 -7.1250 0.0000 -0.0000 170.8073 10.2386 7.5123 -0.0000 -0.0000 0.0000 101.9891 25.5387 34.0761 -10.6174 17.6994 -1.6577 0.0000 -0.0000 -37.9992 -10.8864 -6.9437 1.3319 7.1250 -0.0000 -0.0000 13.3857 -36.7523 2.7768
-8.1389 17.6073 -0.1900 -130.6460 86.7224 -114.6760 0.0000 0.0000 0.0000 -4.9891 -6.3587 -33.0739 3.1640 10.9560 32.1316 0.4098 -9.2717 -12.2578 2.0818 -9.0345 -25.9033 0.0000 0.0000 0.0000 7.4320 8.4915 -30.9744 -3.0020 -10.6982 31.2688 -0.2268 -5.7038 -12.8773 -0.6496 5.1556 -14.3529 -1.4874 1.9236 5.0892 4.7961 2.6537 3.6798 5.6838 1.3217 0.6511 1.1899 -2.1350 -14.9865 -4.8190 -0.1644 36.6645 -2.1480 -0.0791 15.3453 -0.0000 0.0000 0.0000 -105.2354 -23.3114 77.9582 13.9650 -22.6846 -2.8146 -0.0000 0.0000 -44.0930 34.2380 66.0365 31.8778 -7.1250 0.0000 -0.0000 170.7820 10.0094 7.5769 -0.0000 0.0000 0.0000 101.9974 25.5601 34.1537 -10.5908 17.6584 -1.6497 0.0000 -0.0000 -37.8266 -10.8694 -6.7793 1.2985 7.1250 -0.0000 -0.0000 13.3676 -36.5887 2.8277
-8.1390 17.6020 -0.1906 -131.2690 86.7588 -115.3110 0.0000 0.0000 0.0000 -5.1159 -6.2830 -33.0918 3.1641 10.9560 32.1317 0.3239 -9.1230 -11.1822 1.4906 -7.7129 -21.8453 0.0000 0.0000 0.0000 7.3710 8.4875 -30.9734 -3.0063 -10.7052 31.2921 -0.2257 -5.7261 -12.8800 -0.6844 5.2894 -14.7358 -1.4886 1.9324 5.0664 4.7621 2.6638 3.7015 5.6495 1.3258 0.6866 1.2295 -2.1517 -15.0549 -4.8437 -0.1835 36.7464 -2.1722 -0.0835 15.4003 -0.0000 -0.0000 0.0000 -105.1881 -23.4407 77.9878 13.9158 -22.6142 -2.7956 -0.0000 0.0000 -44.3021 34.6833 66.1181 32.3238 -7.1250 0.0000 -0.0000 170.8525 10.1736 7.4866 -0.0000 -0.0000 0.0000 102.0298 25.5927 34.2312 -10.5858 17.6505 -1.6481 0.0000 -0.0000 -37.8228 -10.7529 -6.5748 1.2457 7.1250 -0.0000 -0.0000 13.4243 -36.3795 2.9106
